<?xml version="1.0" encoding="UTF-8" standalone="no"?>
<!DOCTYPE svg PUBLIC "-//W3C//DTD SVG 1.1//EN" "http://www.w3.org/Graphics/SVG/1.1/DTD/svg11.dtd">
<svg width="100%" height="100%" viewBox="0 0 5861 1642" version="1.1" xmlns="http://www.w3.org/2000/svg" xmlns:xlink="http://www.w3.org/1999/xlink" xml:space="preserve" xmlns:serif="http://www.serif.com/" style="fill-rule:evenodd;clip-rule:evenodd;stroke-linecap:round;stroke-linejoin:round;stroke-miterlimit:1.5;">
    <g id="Artboard1" transform="matrix(0.990891,0,0,1,0,-679.166667)">
        <rect x="0" y="679.167" width="5914.626" height="1641.667" style="fill:none;"/>
        <g transform="matrix(1.009192,0,0,1,929.892954,1500.166667)">
            <g transform="matrix(1,0,0,1,-912.5,-820.833333)">
                <clipPath id="_clip1">
                    <rect x="0" y="0" width="1825" height="1641.667"/>
                </clipPath>
                <g clip-path="url(#_clip1)">
                    <g transform="matrix(4.166667,0,0,4.166667,-0.001254,0.001963)">
                        <path d="M266.458,392.827L124.074,174.407L63.904,318.218L0.5,317.995L114.581,51.524L265.649,288.586C265.649,288.586 347.798,174.154 371.997,84.837L317.715,62.386L263.782,84.45C263.782,84.45 269.742,147.856 313.528,163.292L284.862,214.638C284.862,214.638 208.851,188.767 199.035,49.522L317.889,0.5L436.986,49.522C436.986,49.522 436.866,152.092 266.458,392.827Z" style="fill:rgb(86,49,165);"/>
                    </g>
                    <g id="Logo-Outline" serif:id="Logo Outline" transform="matrix(4.166667,0,0,4.166667,-0.001254,0.001963)">
                        <path d="M114.581,51.524L265.649,288.586C265.649,288.586 347.798,174.154 371.997,84.837M371.997,84.837L317.715,62.386L263.782,84.45C263.782,84.45 269.742,147.856 313.528,163.292M313.528,163.292L284.862,214.638C284.862,214.638 208.851,188.767 199.035,49.522M199.035,49.522L317.889,0.5L436.986,49.522C436.986,49.522 436.866,152.092 266.458,392.827M266.458,392.827L124.074,174.407L63.904,318.218L0.5,317.995L114.581,51.524" style="fill:none;stroke:rgb(86,49,165);stroke-width:1px;"/>
                    </g>
                </g>
            </g>
        </g>
        <g transform="matrix(1.02393,0,0,1.014604,-1446.745191,330.743254)">
            <g transform="matrix(916.666667,0,0,916.666667,7219.317348,1485.822837)">
            </g>
            <text x="3212.481px" y="1485.823px" style="font-family:'Tahoma-Bold', 'Tahoma', sans-serif;font-weight:700;font-size:916.667px;fill:rgb(86,49,165);">NOVENO</text>
        </g>
    </g>
</svg>
